<svg id="light_logo" xmlns="http://www.w3.org/2000/svg" viewBox="0 0 1200 328.18"><defs><style>.cls-1{fill:#fff;}.cls-2{fill:#ff9800;}</style></defs><title>light_logo</title><path class="cls-1" d="M471.18,514.66v3.6a19.49,19.49,0,0,1-.25,3.11,52.15,52.15,0,0,1-7.83,21.89,63,63,0,0,1-36.69,27A54.32,54.32,0,0,1,403,571.37c.16,2.32.25,4.6.25,6.83v9.71c0,4.22,0,9.91.12,17s.29,16.75.62,28.86V634a.52.52,0,0,0-.37.13.51.51,0,0,1-.37.12,43.8,43.8,0,0,1-8.83,1.37q-5.35.38-11.19.5T371.69,636c-3.82-.16-7.13-.41-9.95-.74q-.75-18.15-.75-39.43V552.21q0-22.38-.12-45T360,463.92a141.79,141.79,0,0,1,22.26-4,130.55,130.55,0,0,1,24.13-.25,117.23,117.23,0,0,1,23.5,4.35A63.4,63.4,0,0,1,450.16,474a53.75,53.75,0,0,1,14.55,16.54Q470.44,500.48,471.18,514.66Zm-43.53-10.45a30.68,30.68,0,0,0-14.42-6.34,39.3,39.3,0,0,0-16.17.62,1,1,0,0,0-.75.25q.26,4.47.13,9.45c-.09,3.32-.09,6.63,0,9.95s.25,6.51.5,9.57a35,35,0,0,0,1.61,8.34h.75c2.65-.17,5.47-.29,8.46-.38s5.92-.28,8.83-.62a41.64,41.64,0,0,0,8.45-1.86A13.09,13.09,0,0,0,435,522.62a16.58,16.58,0,0,0,.25-7,18.1,18.1,0,0,0-2.49-6.47A15.37,15.37,0,0,0,427.65,504.21Z" transform="translate(-360 -385.91)"/><path class="cls-1" d="M516,525.85c.83-.5,1.86-1.08,3.11-1.74a20.5,20.5,0,0,0,3.11-2,45.9,45.9,0,0,1,38.3-7,29.78,29.78,0,0,1,11.69,6.22q2.49,2.24,3.86,9.33a114.39,114.39,0,0,1,1.74,17q.38,9.94.25,21.76t-.38,23.88q-.24,12.06-.49,23.25t.24,19.65a98.62,98.62,0,0,1-15.54,1.12q-6.84-.12-15.55-.12c-.33-3.82-.49-8.12-.49-12.94s0-9.78.12-14.92.08-10.28,0-15.42-.29-10-.62-14.43c-.17-2-.34-4.18-.5-6.59a69,69,0,0,0-.87-7.09,30,30,0,0,0-1.74-6.21,9.68,9.68,0,0,0-3.11-4.23.71.71,0,0,0-.5-.25.69.69,0,0,1-.49-.25,21.53,21.53,0,0,0-5.85-1.62,16.8,16.8,0,0,0-7.59.5,14.62,14.62,0,0,0-6.71,4.48q-3,3.36-3.48,10.07c-.34,5.81-.42,11.48-.25,17s.37,11.11.62,16.66.37,11.07.37,16.54a137,137,0,0,1-1,16.42v1a37.49,37.49,0,0,1-7.34,1.5,55.55,55.55,0,0,1-6.34.12q-3.24-.14-7.21-.37a68.67,68.67,0,0,0-9.95.25q0-10.2-.13-24.5T483,582.31q-.12-16.41-.12-33.95v-34.2q0-16.66.12-31.47t.38-25.74c2,.17,3.64.29,5,.37s2.57.13,3.73.13,2.4,0,3.73-.13,3-.2,5-.37a27.24,27.24,0,0,0,3.48-.37c1.66-.25,3.31-.46,5-.62a27.82,27.82,0,0,1,4.48-.13c1.33.09,2,.38,2,.87a49.83,49.83,0,0,1,.25,6.59v62.56Z" transform="translate(-360 -385.91)"/><path class="cls-1" d="M627.38,684.54v2.73c0,.16-1.12.37-3.36.62s-5,.41-8.21.5-6.67.08-10.32,0a59.8,59.8,0,0,1-9.45-.87V671.1q0-20.64-.5-41.28t-.87-40.67q-.37-20-.5-39.3t.38-37.18q7.69,0,16.91-.38a97.2,97.2,0,0,1,16.66.62,4.26,4.26,0,0,1,.25,1.75c0,1.66,0,3,.13,4s.12,2.4.12,4.22a5.46,5.46,0,0,0,1.12,1.87c.41.42.87.12,1.37-.87q3.74-7.47,9.95-9.58a28.22,28.22,0,0,1,13.18-1.12q14.18,1,22.39,7.34a39.15,39.15,0,0,1,12.31,16.17,77.79,77.79,0,0,1,5.35,22q1.23,12.2,1.74,24.62a126.1,126.1,0,0,1-1.12,16.92,78.27,78.27,0,0,1-3.49,15A38.86,38.86,0,0,1,685.21,627a21,21,0,0,1-9.33,6.85,54.64,54.64,0,0,1-14.8,3.1,93,93,0,0,1-15.3,0,50.09,50.09,0,0,1-12.18-2.36q-5-1.74-5.48-4,.25,11.69.25,18.9V661q0,4.35-.12,6.72c-.09,1.57-.17,3.06-.25,4.47s-.17,3-.25,4.73S627.54,681.22,627.38,684.54Zm38.55-93.77a26.36,26.36,0,0,0,1.49-7.22c.17-2.48.25-4.89.25-7.21a48.77,48.77,0,0,0-1.49-12.06,35,35,0,0,0-4.48-10.45,24.41,24.41,0,0,0-7.21-7.34,17.06,17.06,0,0,0-9.45-2.73q-6.48,0-9.95,2.73a17.32,17.32,0,0,0-5.35,7.46,37.08,37.08,0,0,0-2.24,11.45q-.37,6.71-.37,14.42,0,9.7.37,15.3a23.11,23.11,0,0,0,1.87,8.58,7.08,7.08,0,0,0,4.6,3.86,32,32,0,0,0,8.33.87q10.2,0,16.29-4.48T665.93,590.77Z" transform="translate(-360 -385.91)"/><path class="cls-1" d="M817.9,470.38q1.49,31.85,1,64.3t-4,64.54a48.91,48.91,0,0,1-12.43,27.86Q792,638.53,774.12,640.26a83.57,83.57,0,0,1-21.64-.87,65.55,65.55,0,0,1-20.27-6.71A45.82,45.82,0,0,1,717,619.74a34,34,0,0,1-6.59-19.52q0-32.84.75-66.16t.24-66.16l-.24-.25h.24q3.73,0,8.34-.25c3.06-.16,6.17-.25,9.32-.25s6.22.12,9.21.37a47.63,47.63,0,0,1,8.21,1.37v.25a970.6,970.6,0,0,0,2.23,122.12A14.26,14.26,0,0,0,755.1,600a16.81,16.81,0,0,0,9.57,2.49,16.27,16.27,0,0,0,9.21-3.49,14.79,14.79,0,0,0,5.47-9q1.24-29.85,1.37-60.69t.87-59.69q3.23-.25,8.33-.87c3.39-.42,6.84-.71,10.32-.87a65.08,65.08,0,0,1,10,.24A19.42,19.42,0,0,1,817.9,470.38Z" transform="translate(-360 -385.91)"/><path class="cls-1" d="M868.89,525.85c.82-.5,1.86-1.08,3.1-1.74a20,20,0,0,0,3.11-2,45.93,45.93,0,0,1,38.31-7,29.84,29.84,0,0,1,11.69,6.22q2.48,2.24,3.85,9.33a113.07,113.07,0,0,1,1.74,17q.38,9.94.25,21.76t-.37,23.88q-.26,12.06-.5,23.25t.25,19.65a98.7,98.7,0,0,1-15.54,1.12q-6.85-.12-15.55-.12c-.33-3.82-.5-8.12-.5-12.94s0-9.78.13-14.92.08-10.28,0-15.42-.29-10-.63-14.43c-.16-2-.33-4.18-.49-6.59a69,69,0,0,0-.87-7.09,31.31,31.31,0,0,0-1.74-6.21,9.76,9.76,0,0,0-3.11-4.23.73.73,0,0,0-.5-.25.71.71,0,0,1-.5-.25,21.44,21.44,0,0,0-5.84-1.62,16.8,16.8,0,0,0-7.59.5,14.57,14.57,0,0,0-6.71,4.48q-3,3.36-3.49,10.07c-.33,5.81-.41,11.48-.25,17s.38,11.11.63,16.66.37,11.07.37,16.54a135,135,0,0,1-1,16.42v1a37.41,37.41,0,0,1-7.33,1.5,55.72,55.72,0,0,1-6.35.12c-2.15-.09-4.56-.21-7.21-.37a68.69,68.69,0,0,0-10,.25q0-30.6-.62-61.19t.37-63.43c2,.17,3.65.3,5,.38s2.57.12,3.73.12,2.4,0,3.73-.12,3-.21,5-.38a27.17,27.17,0,0,0,3.49-.37c1.65-.25,3.31-.45,5-.62a27.73,27.73,0,0,1,4.48-.12c1.32.08,2,.37,2,.87a45,45,0,0,1,.37,7A53.68,53.68,0,0,0,868.89,525.85Z" transform="translate(-360 -385.91)"/><path class="cls-1" d="M978.08,511.67h4.22v.75q-.24,30.09-1.12,61.43t.88,61.44q-1.26,1.49-6.22,1.61t-10.82,0q-5.85-.12-11.07-.37a26.69,26.69,0,0,0-7,.25q1.24-15.67,1.12-31.84t-.62-32.08q-.5-15.92-.5-31.47a297.28,297.28,0,0,1,1.5-30.22v-.24a10.62,10.62,0,0,1,3.35,0c1.58.16,2.78.24,3.61.24q3.22.25,9,.5T978.08,511.67Zm-30.6-54.22,33.83.75q0,1.49.12,5.34c.08,2.58.17,5.39.25,8.46s.17,6.22.25,9.45.13,6.1.13,8.58c-.67,1-2.2,1.66-4.61,2a52,52,0,0,1-8.45.38c-3.24-.09-6.68-.25-10.32-.5a85.92,85.92,0,0,0-10.2-.13q0-7.2-.62-15T947.48,457.45Z" transform="translate(-360 -385.91)"/><path class="cls-1" d="M1043.74,466.65V500c0,2.16,0,4.4.12,6.72s.12,4.72.12,7.21q7.71-.24,16.3-.75l21.26-1.24a9.68,9.68,0,0,1,2,5.85,72.24,72.24,0,0,1,0,8.33c-.17,3-.37,6-.62,9.08A34.26,34.26,0,0,0,1083,543h-38.55v26.24q0,12.81.25,24a16.3,16.3,0,0,0,7.21,5.47,53.48,53.48,0,0,0,10.2,3.11,69.77,69.77,0,0,0,11.07,1.37,94.15,94.15,0,0,0,9.82,0c.33,2.33.66,4.89,1,7.71s.58,5.72.75,8.71a65.22,65.22,0,0,1-.13,9,35.14,35.14,0,0,1-1.62,8.21,192.74,192.74,0,0,1-20.64-.12,117.55,117.55,0,0,1-20.15-2.86,57.74,57.74,0,0,1-16.79-6.72,25.65,25.65,0,0,1-10.57-12.19,264.73,264.73,0,0,1-3.73-36.19q-.49-17-.25-35.19-4,.25-8.33.25H993l.74-30.35q5,.26,9.33.25h8.33q0-5.46-.25-11.81T1010.9,489q0-6.46.13-12.44t.62-10.69a32.65,32.65,0,0,1,7.09-.25q3.85.24,8.08.62t8.46.62A47,47,0,0,0,1043.74,466.65Z" transform="translate(-360 -385.91)"/><rect id="Rectangle" class="cls-2" x="764.73" width="435.27" height="328.18" rx="61.07" ry="61.07"/><path class="cls-1" d="M1229.36,551.82q3.23-2,10.57-2.38c4.88-.26,10.07-.31,15.54-.16s10.57.44,15.3.84,7.92.61,9.58.61h.49l.25.25q1.53,13.18,2.05,28a131.27,131.27,0,0,1-1.93,28.23q-1.23,12.69-7.68,19.42a41.67,41.67,0,0,1-15.89,10.23q-6.23,1.75-12.93,3.14a125.53,125.53,0,0,1-13.68,2,68,68,0,0,1-13.55-.09,45.92,45.92,0,0,1-12.57-3.21q-10-4.21-15.2-11.41a56.08,56.08,0,0,1-8.24-17.9c-.5-1.82-1-4.35-1.63-7.58s-1-6.5-1.39-9.82q-.77-8-1.27-14.42t-.9-12.81q-.39-6.35-.52-13.43c-.1-4.73-.06-10.16.09-16.29q.23-8,.71-16.3t1.71-16.29a71.16,71.16,0,0,1,4.32-15.93,27.81,27.81,0,0,1,10.3-12.7,32.2,32.2,0,0,1,11.18-6.24,81.75,81.75,0,0,1,12.93-3,78.63,78.63,0,0,1,26.12.82,53.37,53.37,0,0,1,21.4,9.29A40.81,40.81,0,0,1,1278,492.4q4.5,11.07,2.79,26.24l-.25,1.49c-.33.5-1.07.75-2.23.75s-3.07.09-5.72.26c-2.49,0-4.6.05-6.35.14s-3.48.13-5.22.13-3.52-.07-5.35-.23-4-.41-6.46-.74q-.77-2.48-2.13-6.09a32.55,32.55,0,0,0-3.5-6.7,28,28,0,0,0-4.86-5.47,9.6,9.6,0,0,0-6.47-2.35q-4.23-.22-8.21-.23a9.59,9.59,0,0,0-7,3,9.87,9.87,0,0,0-1.36,2.61,30.35,30.35,0,0,0-1.36,4.11,98.31,98.31,0,0,0-2.83,14.43q-1.11,8.46-1.58,18t-.21,19.77q.27,10.2,1,19.4a88.7,88.7,0,0,0,2,11.94,17.5,17.5,0,0,0,6.24,10.18,16.43,16.43,0,0,0,5.72,2.23,24.83,24.83,0,0,0,7.84-.27,47.31,47.31,0,0,0,7.58-2,15,15,0,0,0,4.72-3.37,13.41,13.41,0,0,0,3-5.6c.16-.66.37-1.78.62-3.36a47.13,47.13,0,0,0,.48-4.85,39.1,39.1,0,0,0,0-4.48c-.08-1.32-.37-2.07-.87-2.24A20.54,20.54,0,0,0,1244,579l-5.47.26c-1.9.09-3.65.09-5.22,0a11.51,11.51,0,0,1-3.61-.62q-.51-4-.63-7c-.09-2-.1-3.93,0-5.84s.12-3.86.12-5.85a73.33,73.33,0,0,0-.51-7.46v-.25a.22.22,0,0,1,.24-.25Z" transform="translate(-360 -385.91)"/><path class="cls-1" d="M1327.4,575.75v4.48q.27,7.46.65,12.19a20.42,20.42,0,0,0,3.13,9.19,18.89,18.89,0,0,0,8.47,8.44,16.53,16.53,0,0,0,10.7,1.72,13.89,13.89,0,0,0,8.82-6.11q3.58-5.1,3.07-15.3a55.1,55.1,0,0,0,6.72.11q4.23-.13,8.83-.39t8.83-.14a30.25,30.25,0,0,1,7,.85q-.48,6.48-1,12.69c-.33,4.15-.73,8-1.23,11.57a66.21,66.21,0,0,1-1.84,9.2,11.1,11.1,0,0,1-2.85,5.36,23,23,0,0,1-10.93,8.48,51.71,51.71,0,0,1-14.67,3,134,134,0,0,1-16.29,0q-8.34-.48-15.3-.46a35.33,35.33,0,0,1-12.94-4.46,39.06,39.06,0,0,1-11.22-12.28,75.25,75.25,0,0,1-7.24-16.66,99.4,99.4,0,0,1-3.77-19.26,139.05,139.05,0,0,1-.54-20.4q.72-9.2,1.58-17.79a69.37,69.37,0,0,1,3.82-16.79,31.43,31.43,0,0,1,9.93-12.33,48.46,48.46,0,0,1,15.15-7.74,66.05,66.05,0,0,1,17.9-2.9A68.09,68.09,0,0,1,1360.6,512q11.45,2,18.43,7.92a39,39,0,0,1,10.6,14.41A58.41,58.41,0,0,1,1394,553a143.71,143.71,0,0,1,0,20.65,44.81,44.81,0,0,1-6.59,1q-4.85.51-11.44,1t-14,.78q-7.47.27-14.3.28t-12.32-.23A57.07,57.07,0,0,1,1327.4,575.75Zm30-38.61a17.57,17.57,0,0,0-4-1.86,16.17,16.17,0,0,0-4.73-.61,31.57,31.57,0,0,0-9.7,1.26,15,15,0,0,0-6,3.5,14.57,14.57,0,0,0-3.35,5.23,31.37,31.37,0,0,0-1.6,6.22,15.69,15.69,0,0,0-.37,3.85c.09.75.88,1.25,2.37,1.49a40.75,40.75,0,0,0,7.09.24q4.85-.13,14.3-.16,6.46,0,9.7.23a31.15,31.15,0,0,0,4.6.12c.91-.09,1.37-.34,1.37-.75s0-1.28,0-2.61a18.38,18.38,0,0,0-2.63-9.45A16.72,16.72,0,0,0,1357.42,537.14Z" transform="translate(-360 -385.91)"/><path class="cls-1" d="M1441,527c.83-.5,1.86-1.08,3.11-1.74a20.35,20.35,0,0,0,3.1-2,46.67,46.67,0,0,1,25-8.51,44.91,44.91,0,0,1,13.31,1.47,29.49,29.49,0,0,1,11.7,6.19q2.49,2.24,3.88,9.32a114.15,114.15,0,0,1,1.77,17q.39,9.94.29,21.76t-.32,23.88q-.22,12.06-.45,23.25t.29,19.65a98,98,0,0,1-15.55,1.15q-6.84-.11-15.54-.09-.51-5.71-.52-12.93c0-4.81,0-9.78.09-14.93s.06-10.28,0-15.42-.31-9.94-.65-14.42q-.26-3-.51-6.59A68.65,68.65,0,0,0,1469,567a30.64,30.64,0,0,0-1.75-6.21,9.82,9.82,0,0,0-3.12-4.23.73.73,0,0,0-.5-.24.69.69,0,0,1-.49-.25,21.22,21.22,0,0,0-5.85-1.61,16.94,16.94,0,0,0-7.59.52,14.57,14.57,0,0,0-6.71,4.49q-3,3.36-3.46,10.08-.48,8.7-.21,17t.65,16.66q.39,8.34.41,16.54a137.11,137.11,0,0,1-1,16.42v1a36.79,36.79,0,0,1-7.33,1.51,53.49,53.49,0,0,1-6.35.13c-2.15-.08-4.56-.2-7.21-.35a69.06,69.06,0,0,0-10,.27q-.06-30.6-.74-61.19t.24-63.43c2,.17,3.65.29,5,.37s2.57.12,3.73.11,2.4,0,3.73-.13,3-.21,5-.38a27.63,27.63,0,0,0,3.48-.38q2.49-.37,5-.63a29,29,0,0,1,4.47-.14c1.33.09,2,.37,2,.87a45.15,45.15,0,0,1,.38,7A53.86,53.86,0,0,0,1441,527Z" transform="translate(-360 -385.91)"/></svg>